<svg xmlns="http://www.w3.org/2000/svg" viewBox="0 0 411.64 173.03"><defs><style>.cls-1{fill:#ffe284;}.cls-2{fill:#9e884c;}.cls-3{fill:#ffeea3;}.cls-4{fill:#fff;}.cls-5{fill:#231f20;}.cls-6{fill:#d9a15c;}.cls-7,.cls-8{fill:none;stroke:#231f20;stroke-miterlimit:10;}.cls-8{stroke-linecap:round;}</style></defs><title>colocarpy</title><g id="Layer_2" data-name="Layer 2"><g id="Layer_2-2" data-name="Layer 2"><path class="cls-1" d="M402.64,47.85c5.67-.34,9.34,3.66,8.34,5.33-6.34,10.33-29.34,27.33-33.34,33-2.71,3.85,2.41,35.69,5.35,54.68-6.79-12-15.73-22.05-24.68-33.68-11-13-9-42-30-43,21.16.92,42.31-6.62,61.91-14.84C397.49,48.56,402.64,47.85,402.64,47.85Z"/><path class="cls-1" d="M211.39,13.8c34.88,2.87,90.34,11.52,102.92,15.71,15,5,19.33,18.34,34.67,21,9.71,1.69,28.66.17,41.24-1.17-19.6,8.22-40.75,15.76-61.91,14.84,21,1,19,30,30,43,8.95,11.63,17.89,21.67,24.68,33.68,1.39,9,2.29,15.06,1.65,14-5-25.9-28.56-49.75-45.45-60.16-2.17-4.31-5-9.17-5-9.17L288,100.23l1.33,1s1.47.57,4,1.47c-17.76,9.26-37.8,20.29-48.63,22.53a112.7,112.7,0,0,1-20.53,3.69l-.8-3H196.65c-2.58-1.41-4.34-2.34-4.34-2.34L181,125.85l1,3.29c-6.51-.39-12.93-.94-19.07-1.56a10.87,10.87,0,0,0,0-1.4c-.5-13.15-7.94-14.56-8.62-14.66H121.78a.63.63,0,0,1-.62-.78l.61-2.63a.64.64,0,0,0-.72-.78L109.5,109.1a.63.63,0,0,0-.54.61c0,1.48-.07,5.65,1,6.47a52.89,52.89,0,0,1,3.48,4.34c-2.19,0-10.68.12-14.15,1-4,1-15-4.33-15-4.33A60.43,60.43,0,0,0,73,118.85c-4.83,1-22.71-.55-35.32-1.87,0,0,39.65-3.47,51-8.47s26.67-31,23.67-43C109.78,55.38,94.67,46.21,90,43.6c3.92,2.3,15.14,9.91,19,23.58,4.66,16.67-7.34,32.67-32.67,41s-21.33-6.67-39.49.3c-15.33,5.88-4.18,7.89-.33,8.38-6.84-.73-11.85-1.35-11.85-1.35s-7.33.67-9.66-1S-.36,100.18.55,96.65,7,85.51,11,82.51s9.33-9.33,10.66-12a8.63,8.63,0,0,1,2.59-2.6,7.22,7.22,0,0,0,3.93,1.15,7.35,7.35,0,0,0,7.35-7.17c7.1-4.74,27.1-20.81,29.13-23.71,2.34-3.33,9-4.67,9-4.67s9-7,25-15c12.47-6.24,45.6-6.4,73.5-6,7.9.11,15.37.27,21.84.34C198.72,12.9,204.67,13.25,211.39,13.8Zm-157.27,56a7.07,7.07,0,1,0-7.07,7.08A7.08,7.08,0,0,0,54.12,69.77ZM14.24,109.86c1.77,1,1.74-3,.92-8.73S8.64,89.85,6.64,90.51a32.21,32.21,0,0,0-2,8.67C4.56,102.89,12.47,108.87,14.24,109.86Z"/><path class="cls-1" d="M329.31,102.51c3.33,4.34,22.69,8.8,22.69,8.8s-9,5.2-26.36,1.2a301.89,301.89,0,0,1-32.37-9.86c13.93-7.28,26.46-13.47,32-13.47,3.21,0,8.16,2,13.88,5.51,1.81,3.59,3.18,6.79,2.12,6.49C339,100.51,326,98.18,329.31,102.51Z"/><path class="cls-1" d="M334.22,85.52s2.8,4.86,5,9.17c-5.72-3.53-10.67-5.51-13.88-5.51-5.58,0-18.11,6.19-32,13.47-2.49-.9-4-1.47-4-1.47l-1.33-1Z"/><path class="cls-1" d="M239.64,12.38c6.47.42,14.86-1.11,16.65-1.46-2.53.56-18.06,3.9-22.65,3.59-5-.33-15.24-7.33-18.62-4.66a23.81,23.81,0,0,0-3.63,4c-6.72-.55-12.67-.9-17.41-1-6.47-.07-13.94-.23-21.84-.34C183.07,7.05,197.82.7,207.64.51,225,.18,232.37,11.92,239.64,12.38Z"/><path class="cls-1" d="M235.64,132.85c6.51,6.5,4.67,32.33,4,34.66s-7,5.34-9.33,5c-1.1-.16-9.63-8.41-18.45-17.12,2.85-7.12,5.47-15.11,5.12-16.54s-6.95-5.45-13.24-9c7,0,13.88-.3,20.37-.94l.53,2S233,130.18,235.64,132.85Z"/><path class="cls-1" d="M223.31,125.85l.8,3c-6.49.64-13.36.92-20.37.94-2.56-1.47-5.08-2.86-7.09-4Z"/><path class="cls-1" d="M217,138.85c.35,1.43-2.27,9.42-5.12,16.54-9.75-9.65-19.85-19.86-20.55-20.21s-1.17-3.2-1.41-5.64c4.63.19,9.27.28,13.84.27C210,133.4,216.63,137.47,217,138.85Z"/><path class="cls-2" d="M191.31,135.18c.7.35,10.8,10.56,20.55,20.21-2.44,6.14-5,11.64-6,11.79-2.15.33-14.84-14.33-17.51-20.33-1.88-4.23-4.76-12.95-6.29-17.71q3.91.24,7.88.4C190.14,132,190.57,134.81,191.31,135.18Z"/><path class="cls-1" d="M203.74,129.81c-4.57,0-9.21-.08-13.84-.27-.19-2-.26-3.69-.26-3.69h7C198.66,127,201.18,128.34,203.74,129.81Z"/><path class="cls-1" d="M196.65,125.85h-7s.07,1.73.26,3.69q-4-.16-7.88-.4l-1-3.29,11.33-2.34S194.07,124.44,196.65,125.85Z"/><path class="cls-1" d="M163,126.18a10.87,10.87,0,0,1,0,1.4c-27.2-2.75-49-7.07-49-7.07h-.52a52.89,52.89,0,0,0-3.48-4.34c-1.09-.82-1.07-5-1-6.47a.63.63,0,0,1,.54-.61l11.55-1.78a.64.64,0,0,1,.72.78l-.61,2.63a.63.63,0,0,0,.62.78h32.58C155,111.62,162.48,113,163,126.18Z"/><path class="cls-1" d="M163,127.58c-1,13.07-22.45,22.54-26.31,20.93-3.11-1.29-16.66-19.46-23.18-28H114S135.75,124.83,163,127.58Z"/><path class="cls-3" d="M112.31,65.51c3,12-12.33,38-23.67,43s-51,8.47-51,8.47l-.57-.06-.5,0h-.1c-3.85-.49-15-2.5.33-8.38,18.16-7,14.16,8,39.49-.3s37.33-24.33,32.67-41c-3.83-13.67-15-21.28-19-23.58C94.67,46.21,109.78,55.38,112.31,65.51Z"/><path class="cls-4" d="M47.05,62.7A7.08,7.08,0,1,1,40,69.77,7.08,7.08,0,0,1,47.05,62.7Zm4.38,7.77a3.29,3.29,0,1,0-3.29,3.29A3.28,3.28,0,0,0,51.43,70.47Z"/><path class="cls-5" d="M48.14,67.19a3.29,3.29,0,1,1-3.28,3.28A3.28,3.28,0,0,1,48.14,67.19Z"/><path class="cls-3" d="M36.59,116.87l.5,0Z"/><path class="cls-4" d="M35.52,61.7a1.21,1.21,0,0,1,0,.19,12.22,12.22,0,0,1-2.2,1.29c-.65.22-1.51.56-2.46,1a3.67,3.67,0,0,0,.63-2.07,3.78,3.78,0,1,0-4,3.76,31,31,0,0,0-3.27,2A7.35,7.35,0,1,1,35.52,61.7Z"/><path class="cls-4" d="M35.51,61.89a7.35,7.35,0,0,1-7.35,7.17,7.22,7.22,0,0,1-3.93-1.15,31,31,0,0,1,3.27-2h.21a3.74,3.74,0,0,0,3.14-1.7c.95-.43,1.81-.77,2.46-1A12.22,12.22,0,0,0,35.51,61.89Z"/><path class="cls-5" d="M31.48,62.1a3.67,3.67,0,0,1-.63,2.07c-1.05.47-2.21,1-3.35,1.69a3.77,3.77,0,1,1,4-3.76Z"/><path class="cls-5" d="M30.85,64.17a3.74,3.74,0,0,1-3.14,1.7H27.5C28.64,65.22,29.8,64.64,30.85,64.17Z"/><path class="cls-6" d="M15.16,101.13c.82,5.72.85,9.71-.92,8.73s-9.68-7-9.6-10.68a32.21,32.21,0,0,1,2-8.67C8.64,89.85,14.34,95.41,15.16,101.13Z"/><path class="cls-7" d="M182,129.14c1.53,4.76,4.41,13.48,6.29,17.71,2.67,6,15.36,20.66,17.51,20.33,1-.15,3.6-5.65,6-11.79"/><path class="cls-7" d="M293.27,102.65a301.89,301.89,0,0,0,32.37,9.86c17.34,4,26.36-1.2,26.36-1.2s-19.36-4.46-22.69-8.8,9.67-2,12-1.33c1.06.3-.31-2.9-2.12-6.49"/><path class="cls-7" d="M383,140.86c-2.94-19-8.06-50.83-5.35-54.68,4-5.67,27-22.67,33.34-33,1-1.67-2.67-5.67-8.34-5.33,0,0-5.15.71-12.42,1.49"/><path class="cls-7" d="M224.11,128.87a112.7,112.7,0,0,0,20.53-3.69c10.83-2.24,30.87-13.27,48.63-22.53,13.93-7.28,26.46-13.47,32-13.47,3.21,0,8.16,2,13.88,5.51,16.89,10.41,40.47,34.26,45.45,60.16.64,1.07-.26-5-1.65-14"/><path class="cls-7" d="M163,127.58c6.14.62,12.56,1.17,19.07,1.56q3.91.24,7.88.4"/><path class="cls-7" d="M37.66,117c12.61,1.32,30.49,2.91,35.32,1.87a60.43,60.43,0,0,1,11.33-1.67s11,5.33,15,4.33c3.47-.87,12-1,14.15-1"/><path class="cls-7" d="M24.23,67.91a8.63,8.63,0,0,0-2.59,2.6c-1.33,2.67-6.66,9-10.66,12S1.45,93.12.55,96.65,12.64,112.85,15,114.51s9.66,1,9.66,1,5,.62,11.85,1.35"/><path class="cls-7" d="M390.22,49.34c-12.58,1.34-31.53,2.86-41.24,1.17-15.34-2.66-19.67-16-34.67-21-12.58-4.19-68-12.84-102.92-15.71-6.72-.55-12.67-.9-17.41-1-6.47-.07-13.94-.23-21.84-.34-27.9-.4-61-.24-73.5,6-16,8-25,15-25,15s-6.66,1.34-9,4.67c-2,2.9-22,19-29.13,23.71"/><path class="cls-7" d="M196.65,125.85h-7s.07,1.73.26,3.69c.24,2.44.67,5.27,1.41,5.64s10.8,10.56,20.55,20.21c8.82,8.71,17.35,17,18.45,17.12,2.33.34,8.67-2.66,9.33-5s2.51-28.16-4-34.66c-2.66-2.67-11-2-11-2l-.53-2-.8-3Z"/><path class="cls-7" d="M6.64,90.51c2-.66,7.7,4.9,8.52,10.62s.85,9.71-.92,8.73-9.68-7-9.6-10.68A32.21,32.21,0,0,1,6.64,90.51Z"/><path class="cls-8" d="M54.12,69.77a7.07,7.07,0,1,1-7.07-7.07A7.08,7.08,0,0,1,54.12,69.77Z"/><path class="cls-8" d="M24.23,67.91A7.35,7.35,0,1,1,35.52,61.7a1.21,1.21,0,0,1,0,.19,7.35,7.35,0,0,1-7.35,7.17A7.22,7.22,0,0,1,24.23,67.91Z"/><path class="cls-7" d="M27.5,65.86a3.77,3.77,0,1,1,4-3.76,3.67,3.67,0,0,1-.63,2.07,3.74,3.74,0,0,1-3.14,1.7Z"/><path class="cls-8" d="M51.43,70.47a3.29,3.29,0,1,1-3.29-3.28A3.29,3.29,0,0,1,51.43,70.47Z"/><path class="cls-7" d="M163,127.58a10.87,10.87,0,0,0,0-1.4c-.5-13.15-7.94-14.56-8.62-14.66H121.78a.63.63,0,0,1-.62-.78l.61-2.63a.64.64,0,0,0-.72-.78L109.5,109.1a.63.63,0,0,0-.54.61c0,1.48-.07,5.65,1,6.47a52.89,52.89,0,0,1,3.48,4.34c6.52,8.53,20.07,26.7,23.18,28C140.5,150.12,162,140.65,163,127.58Z"/><path class="cls-7" d="M256.64,10.85l-.16,0-.19,0c-2.53.56-18.06,3.9-22.65,3.59-5-.33-15.24-7.33-18.62-4.66a23.81,23.81,0,0,0-3.63,4"/><path class="cls-7" d="M172.14,12.51C183.07,7.05,197.82.7,207.64.51c17.34-.33,24.73,11.41,32,11.87,6.47.42,14.86-1.11,16.65-1.46"/><polygon class="cls-1" points="186.14 121.09 191.14 127.68 222.14 127.68 226.97 119.51 186.14 121.09"/><path class="cls-1" d="M124.47,102.93s-3.41,6.08-4.41,6.08-10.25,1.17-10.25,1.17l-1.92-5.09Z"/><polygon class="cls-1" points="174.43 11.99 171.19 13.86 210.87 14.74 211.24 12.8 197.49 9.55 174.43 11.99"/></g></g></svg>