<?xml version="1.0" standalone="no"?>
<!DOCTYPE svg PUBLIC "-//W3C//DTD SVG 20010904//EN"
 "http://www.w3.org/TR/2001/REC-SVG-20010904/DTD/svg10.dtd">
<svg version="1.0" xmlns="http://www.w3.org/2000/svg"
 width="947.000000pt" height="947.000000pt" viewBox="0 0 947.000000 947.000000"
 preserveAspectRatio="xMidYMid meet">
<metadata>
Created by potrace 1.11, written by Peter Selinger 2001-2013
</metadata>
<g transform="translate(0.000000,947.000000) scale(0.100000,-0.100000)"
fill="#000000" stroke="none">
<path d="M3355 9401 c-32 -61 -201 -367 -231 -418 -10 -18 -41 -69 -68 -115
-212 -361 -502 -786 -775 -1138 -88 -113 -342 -423 -361 -440 -3 -3 -36 -41
-75 -85 -109 -125 -183 -204 -460 -489 -171 -177 -258 -281 -364 -440 -270
-402 -437 -866 -478 -1325 -15 -163 -9 -475 11 -611 76 -528 268 -964 592
-1350 408 -486 987 -809 1618 -905 22 -3 41 -7 42 -8 12 -15 83 -158 118 -238
117 -271 199 -571 251 -919 5 -36 22 -186 31 -275 6 -64 17 -326 18 -442 0
-67 4 -125 9 -129 8 -9 8 -8 12 76 6 149 16 326 20 345 2 11 7 54 10 95 2 41
7 84 9 95 2 11 7 49 11 85 4 36 8 67 10 70 2 3 6 25 9 50 3 25 8 56 11 70 3
14 8 41 11 60 2 19 16 82 29 140 71 294 148 515 260 745 104 213 101 209 171
224 240 52 542 169 767 299 l88 51 77 -46 c211 -125 482 -239 687 -289 99 -24
194 -44 253 -54 l73 -12 43 -86 c24 -48 56 -116 71 -152 15 -36 33 -78 40 -95
12 -28 59 -154 61 -165 0 -3 3 -12 7 -20 19 -52 89 -319 103 -400 4 -25 8 -47
9 -50 1 -3 5 -25 9 -50 5 -25 10 -52 11 -60 2 -9 6 -43 10 -75 4 -33 9 -68 11
-78 2 -10 6 -46 9 -80 3 -34 8 -75 10 -92 8 -63 18 -316 19 -457 1 -97 5 -148
12 -148 6 0 11 28 12 67 2 86 12 287 17 333 2 19 7 69 10 110 4 41 13 118 20
170 8 52 17 115 20 140 3 25 13 79 22 120 8 41 17 86 19 100 10 56 66 265 95
357 47 148 131 355 194 478 87 169 89 171 138 180 58 11 49 8 203 55 76 23
152 47 169 54 16 7 66 28 110 46 95 39 323 155 346 176 8 8 18 14 22 14 13 0
183 116 273 186 597 467 982 1123 1092 1859 16 102 20 185 20 390 0 143 -4
289 -9 325 -5 36 -11 79 -14 95 -60 429 -264 896 -545 1244 -77 95 -110 131
-278 306 -157 162 -226 238 -352 385 -115 133 -314 379 -385 475 -16 22 -33
45 -37 50 -29 37 -66 88 -165 230 -62 88 -117 167 -122 175 -6 8 -26 38 -44
65 -181 270 -413 672 -592 1028 -47 92 -87 167 -90 167 -3 0 -25 -39 -50 -87
-62 -122 -112 -213 -217 -393 -84 -144 -122 -207 -202 -335 -74 -119 -310
-470 -318 -473 -4 -2 -8 -10 -8 -17 0 -7 -4 -15 -8 -17 -4 -1 -30 -34 -57 -73
-43 -60 -176 -240 -212 -285 -6 -8 -57 -73 -114 -145 -56 -71 -116 -146 -133
-165 -17 -20 -49 -57 -71 -84 -22 -27 -54 -65 -72 -85 l-31 -35 -19 21 c-23
26 -194 233 -208 251 -5 7 -17 21 -26 30 -8 9 -62 80 -120 157 -57 77 -107
142 -110 145 -10 9 -206 294 -295 430 -186 282 -405 662 -571 991 l-89 177
-29 -57z"/>
</g>
</svg>
