<?xml version="1.0" standalone="no"?>
<!DOCTYPE svg PUBLIC "-//W3C//DTD SVG 20010904//EN"
 "http://www.w3.org/TR/2001/REC-SVG-20010904/DTD/svg10.dtd">
<svg version="1.0" xmlns="http://www.w3.org/2000/svg"
 width="322.000000pt" height="322.000000pt" viewBox="0 0 322.000000 322.000000"
 preserveAspectRatio="xMidYMid meet">
<metadata>
Created by potrace 1.11, written by Peter Selinger 2001-2013
</metadata>
<g transform="translate(0.000000,322.000000) scale(0.100000,-0.100000)"
fill="#000000" stroke="none">
<path d="M1430 2900 c-25 -5 -61 -12 -80 -16 -19 -3 -39 -10 -45 -14 -5 -4
-26 -11 -45 -14 -45 -9 -51 -12 -193 -82 -162 -81 -168 -84 -174 -100 -3 -8
-10 -14 -17 -14 -6 0 -34 -22 -61 -50 -27 -27 -54 -50 -59 -50 -13 0 -66 -51
-66 -63 0 -6 -19 -31 -42 -57 -52 -56 -72 -81 -82 -100 -13 -27 -32 -58 -44
-72 -21 -26 -82 -151 -82 -169 0 -10 -4 -20 -9 -23 -5 -4 -12 -24 -16 -46 -4
-22 -11 -42 -16 -46 -5 -3 -9 -20 -9 -39 0 -18 -4 -35 -10 -37 -5 -1 -13 -52
-16 -111 -4 -59 -11 -110 -16 -113 -11 -7 -11 -131 0 -138 5 -3 12 -53 15
-112 3 -59 11 -112 17 -118 5 -5 10 -22 10 -37 0 -15 4 -30 9 -33 4 -3 11 -23
14 -43 7 -39 105 -243 132 -273 8 -9 15 -22 15 -29 0 -6 7 -14 15 -17 8 -4 15
-12 15 -18 0 -7 11 -23 25 -36 14 -13 25 -28 25 -34 0 -13 171 -186 183 -186
5 0 30 -18 56 -40 26 -22 52 -40 58 -40 5 0 18 -9 27 -19 10 -11 31 -23 47
-26 16 -4 29 -10 29 -13 0 -8 74 -42 90 -42 6 0 10 -3 10 -8 0 -10 52 -32 94
-39 20 -3 39 -10 42 -14 3 -5 18 -9 33 -9 15 0 32 -5 37 -10 6 -6 59 -14 118
-17 59 -3 109 -10 112 -15 7 -11 121 -11 128 0 3 5 53 12 112 15 59 3 112 11
118 17 5 5 22 10 37 10 15 0 30 4 33 9 3 4 22 11 42 14 42 7 94 29 94 39 0 5
9 8 19 8 25 0 55 13 106 45 22 14 47 28 55 32 8 4 20 11 25 15 6 4 24 19 41
33 18 14 36 25 41 25 5 0 27 18 48 40 21 22 43 40 47 40 13 0 68 52 68 65 0 6
18 29 40 50 22 21 40 43 40 48 0 5 20 33 45 61 25 29 45 56 45 60 0 14 35 86
42 86 5 0 8 5 8 11 0 13 31 82 41 89 3 3 9 22 13 44 4 21 12 47 17 57 5 11 14
28 19 39 6 12 13 57 17 101 3 44 10 82 15 85 11 7 11 321 -1 328 -4 3 -11 38
-15 78 -4 40 -11 77 -16 82 -6 6 -10 22 -10 37 0 15 -4 31 -10 34 -5 3 -10 13
-10 22 0 8 -7 30 -15 49 -8 19 -22 49 -30 68 -8 19 -15 39 -15 45 0 6 -3 11
-8 11 -7 0 -12 7 -46 77 -11 21 -36 59 -58 85 -21 26 -38 50 -38 55 0 13 -194
203 -207 203 -6 0 -20 10 -30 23 -21 24 -39 37 -98 67 -45 23 -77 42 -85 51
-8 8 -77 39 -89 39 -6 0 -27 9 -47 20 -19 11 -56 23 -80 27 -25 3 -47 10 -50
14 -3 5 -18 9 -33 9 -15 0 -32 5 -39 12 -14 14 -405 21 -472 8z"/>
</g>
</svg>
